<?xml version="1.0" encoding="UTF-8"?>
<svg width="50px" height="50px" viewBox="0 0 50 50" version="1.1" xmlns="http://www.w3.org/2000/svg" xmlns:xlink="http://www.w3.org/1999/xlink">
    <title>q logo copy</title>
    <g id="Page-1" stroke="none" stroke-width="1" fill="none" fill-rule="evenodd">
        <g id="Desktop-HD-Copy-2" transform="translate(-47.000000, -64.000000)">
            <g id="q-logo-copy" transform="translate(47.000000, 64.000000)">
                <circle id="Oval" fill="#FF7169" cx="25" cy="25" r="25"></circle>
                <path d="M24.5585586,8 C26.7307416,8 28.6646562,8.37015503 30.3603604,9.11047619 C32.0560645,9.85079735 33.4819762,10.8914219 34.6381381,12.232381 C35.7943001,13.57334 36.6736707,15.1796732 37.2762763,17.0514286 C37.8788819,18.923184 38.1801802,20.9904649 38.1801802,23.2533333 C38.1801802,25.3765186 37.8928958,27.3355466 37.3183183,29.1304762 C36.7437409,30.9254058 35.9379431,32.5212629 34.9009009,33.9180952 L39,37.9619048 L35.8888889,41 L31.7057057,36.8514286 C30.7387339,37.4520665 29.6666726,37.9165063 28.4894895,38.2447619 C27.3123064,38.5730175 26.0020092,38.7371429 24.5585586,38.7371429 C22.4003896,38.7371429 20.4804889,38.3565117 18.7987988,37.5952381 C17.1171087,36.8339644 15.698204,35.7688957 14.542042,34.4 C13.3858801,33.0311043 12.5065095,31.4003269 11.9039039,29.507619 C11.3012983,27.6149112 11,25.5301701 11,23.2533333 C11,20.9904649 11.3012983,18.923184 11.9039039,17.0514286 C12.5065095,15.1796732 13.3858801,13.57334 14.542042,12.232381 C15.698204,10.8914219 17.1171087,9.85079735 18.7987988,9.11047619 C20.4804889,8.37015503 22.4003896,8 24.5585586,8 Z M24.5585586,12.127619 C23.3393332,12.127619 22.2112164,12.3755531 21.1741742,12.8714286 C20.137132,13.3673041 19.2332371,14.090154 18.4624625,15.04 C17.6916878,15.989846 17.0890913,17.1526915 16.6546547,18.5285714 C16.220218,19.9044513 16.003003,21.4793562 16.003003,23.2533333 C16.003003,25.0133421 16.220218,26.5952311 16.6546547,27.9990476 C17.0890913,29.4028642 17.6916878,30.5901539 18.4624625,31.5609524 C19.2332371,32.5317509 20.137132,33.275553 21.1741742,33.792381 C22.2112164,34.3092089 23.3393332,34.567619 24.5585586,34.567619 C25.301305,34.567619 25.9704675,34.5012705 26.5660661,34.3685714 C27.1616646,34.2358724 27.7887855,33.9739702 28.4474474,33.5828571 L28.4474474,33.5828571 L25.6516517,30.7961905 L28.6996997,27.7161905 L31.4534535,30.4609524 C32.0140168,29.5530113 32.44144,28.5054028 32.7357357,27.3180952 C33.0300315,26.1307877 33.1771772,24.7758806 33.1771772,23.2533333 C33.1771772,21.4793562 32.9564587,19.9044513 32.515015,18.5285714 C32.0735714,17.1526915 31.4674713,15.989846 30.6966967,15.04 C29.9259221,14.090154 29.0150203,13.3673041 27.963964,12.8714286 C26.9129077,12.3755531 25.7777839,12.127619 24.5585586,12.127619 Z" id="Q" fill="#FFFFFF" fill-rule="nonzero"></path>
            </g>
        </g>
    </g>
</svg>