<svg id="Layer_1" data-name="Layer 1" xmlns="http://www.w3.org/2000/svg" viewBox="0 0 57.02 286.99"><defs><style>.cls-1{fill:#c3c9f8;isolation:isolate;}</style></defs><title>new-wave</title><path class="cls-1" d="M27.14,0H43.87c5.63,14.48,14,36.36,12.88,63-.31,7.67-.32,28.21-10.75,51-10.83,23.67-12.64,22.85-22.16,42.7-10.09,21-7.79,54.78-7.34,59.05,2,19.47,8.35,34.14,12.45,43.27,2.3,5.11,3.42,5.72,14.94,28H27c-1.4-3.49-13-25.47-16.27-34-9.06-23.84-8.87-42.28-8-65.24.93-23.52,7.11-35.5,13.54-49.7,10-22.16,17.92-30.84,21.21-43.3C45,66.33,46.17,49,27.14,0Z"/></svg>